<?xml version="1.0" encoding="iso-8859-1"?>
<!-- Generator: Adobe Illustrator 16.0.0, SVG Export Plug-In . SVG Version: 6.00 Build 0)  -->
<!DOCTYPE svg PUBLIC "-//W3C//DTD SVG 1.1//EN" "http://www.w3.org/Graphics/SVG/1.1/DTD/svg11.dtd">
<svg version="1.1" id="Capa_1" xmlns="http://www.w3.org/2000/svg" xmlns:xlink="http://www.w3.org/1999/xlink" x="0px" y="0px"
	 width="190.811px" height="190.811px" viewBox="0 0 220.319 220.32" style="enable-background:new 0 0 220.319 220.32;"
	 xml:space="preserve">
<g>
	<g>
		<path d="M218.162,145.752h-27.543c2.736-1.187,5.146-3.042,6.95-5.563c2.721-3.797,3.797-8.616,2.975-13.199
			c-0.659-3.744-2.753-7.008-5.875-9.17c-3.106-2.162-6.882-3.006-10.631-2.331c-1.187,0.211-1.962,1.339-1.751,2.515
			c0.211,1.177,1.36,1.979,2.51,1.735c2.616-0.464,5.247,0.11,7.404,1.63c2.173,1.503,3.633,3.771,4.098,6.386
			c0.616,3.46-0.19,7.088-2.236,9.936c-1.973,2.753-4.852,4.546-8.147,5.046c-8.211,1.282-12.957-4.187-20.703-13.969
			c-0.929-1.16-1.814-2.421-2.711-3.66c1.318-0.1,2.647-0.442,3.95-1.176c3.797-2.136,5.157-6.987,3.021-10.826
			c-1.846-3.238-5.985-4.388-9.229-2.573c-1.371,0.774-2.368,2.024-2.79,3.544c-0.406,1.502-0.222,3.079,0.554,4.43
			c0.232,0.4,0.501,0.77,0.797,1.07c-0.56-0.459-1.05-1.018-1.472-1.556c-6.175-8.253-13.663-16.108-26.346-16.108
			c-0.032,0-0.079,0-0.111,0c-2.057,0.01-4.028,0.367-5.938,0.883c1.951-3.407,3.312-7.349,3.228-11.76
			c-0.096-4.385-2.933-8.332-5.442-11.805c-2.142-2.964-4.166-5.745-3.808-7.781c0.274-1.603,1.371-2.183,3.639-3.034
			c1.74-0.654,4.382-1.653,4.303-4.493c-0.105-5.561-7.324-9.774-16.827-9.774l-0.633,0.005c-4.385,0.098-8.503,1.087-11.631,2.813
			c-3.56,1.949-5.497,4.673-5.432,7.636c0.063,2.834,2.727,3.72,4.48,4.314c2.312,0.777,3.436,1.308,3.765,2.9
			c0.433,2.014-1.463,4.875-3.488,7.923c-2.37,3.573-5.065,7.623-4.978,12.019c0.084,4.176,1.463,7.884,3.37,11.093
			c-1.951-0.546-3.96-0.929-6.093-0.929c-0.032,0-0.063,0-0.095,0c-12.706,0-20.208,7.892-26.386,16.155
			c-0.427,0.543-0.907,1.076-1.468,1.524c0.33-0.327,0.588-0.681,0.815-1.087c0.777-1.355,0.978-2.938,0.556-4.439
			c-0.422-1.52-1.403-2.779-2.777-3.544c-3.261-1.814-7.391-0.649-9.233,2.584c-2.144,3.828-0.789,8.669,3.035,10.811
			c1.297,0.749,2.626,1.081,3.942,1.181c-0.896,1.234-1.78,2.5-2.705,3.66c-7.75,9.777-12.49,15.251-20.714,13.964
			c-3.272-0.495-6.178-2.288-8.143-5.058c-2.041-2.842-2.853-6.459-2.23-9.93c0.469-2.594,1.917-4.861,4.092-6.381
			c2.178-1.519,4.802-2.099,7.409-1.635c1.158,0.232,2.308-0.559,2.508-1.729c0.208-1.181-0.562-2.31-1.74-2.521
			c-3.731-0.675-7.518,0.158-10.631,2.336c-3.122,2.157-5.218,5.427-5.888,9.149c-0.82,4.614,0.253,9.419,2.977,13.216
			c1.803,2.521,4.216,4.387,6.947,5.568H2.159c-1.194,0-2.159,0.971-2.159,2.162c0,1.187,0.97,2.162,2.159,2.162h216.003
			c1.191,0,2.157-0.986,2.157-2.162C220.319,146.728,219.354,145.752,218.162,145.752z M162.358,114.296
			c1.171-0.653,2.689-0.248,3.354,0.918c0.506,0.907,0.585,1.92,0.316,2.837c-0.053-0.185-0.116-0.358-0.211-0.538
			c-0.401-0.706-1.129-1.102-1.889-1.102c-0.358,0-0.728,0.09-1.055,0.279c-0.39,0.211-0.875,0.074-1.097-0.316
			c-0.2-0.348-0.242-0.775-0.126-1.16C161.758,114.814,162.011,114.487,162.358,114.296z M57.433,116.685
			c-1.031-0.563-2.365-0.211-2.943,0.828c-0.103,0.169-0.155,0.343-0.211,0.543c-0.274-0.912-0.192-1.924,0.309-2.82
			c0.454-0.797,1.297-1.245,2.16-1.245c0.401,0,0.804,0.105,1.2,0.316c0.351,0.2,0.604,0.532,0.723,0.929
			c0.113,0.39,0.065,0.801-0.146,1.186C58.298,116.775,57.839,116.913,57.433,116.685z M88.895,143.195
			c-3.462-0.379-6.55-2.077-8.715-4.788c-2.178-2.71-3.172-6.096-2.792-9.561c0.285-2.632,1.593-5.015,3.66-6.682
			c2.091-1.672,4.672-2.404,7.317-2.136c1.173,0.121,2.252-0.743,2.371-1.914c0.124-1.191-0.728-2.246-1.912-2.368
			c-3.752-0.427-7.515,0.675-10.481,3.064c-2.974,2.378-4.838,5.784-5.26,9.571c-0.512,4.604,0.807,9.117,3.715,12.714
			c1.606,2.004,3.615,3.528,5.843,4.63H43.2c5.793-2.51,10.336-8.078,15.282-14.312c1.635-2.057,3.206-4.261,4.788-6.486
			c1.016-1.43,2.025-2.816,3.04-4.188c0.05-0.053,0.103-0.095,0.129-0.137c0.029-0.037,0.035-0.074,0.05-0.101
			c5.822-7.789,12.089-14.288,22.831-14.288c0.021,0,0.053,0,0.093,0c5.168,0.011,9.843,2.08,13.165,5.787
			c2.246,2.526,3.681,5.701,4.396,9.129c-0.907-0.675-1.917-1.255-3.101-1.667c-2.333-0.796-4.823-0.643-7.019,0.428
			c-2.209,1.075-3.868,2.958-4.662,5.289c-1.387,4.061,0.789,8.501,4.838,9.893c0.725,0.243,1.447,0.338,2.144,0.338
			c2.782,0,5.368-1.719,6.326-4.482c0.567-1.683,0.264-3.396-0.58-4.805c-0.011-0.479-0.114-0.922-0.295-1.36
			c2.17,1.835,2.354,4.71,1.933,7.146C104.063,139.213,96.805,144.076,88.895,143.195z M100.775,130.497
			c-0.612,0.56-1.487,0.807-2.339,0.527c-1.804-0.611-2.771-2.589-2.144-4.397c0.108-0.285,0.295-0.507,0.443-0.76
			c-0.113,0.954,0.042,1.909,0.562,2.705C98.052,129.763,99.349,130.47,100.775,130.497z M108.037,145.752h-8.828
			c3.552-1.582,6.603-4.113,8.828-7.313V145.752z M108.037,110.025c-4.438-3.314-11.42-9.843-11.589-18.341
			c-0.063-3.045,2.133-6.362,4.251-9.558c2.531-3.808,4.92-7.404,4.126-11.212c-0.896-4.174-4.493-5.379-6.637-6.085
			c-0.466-0.146-1.107-0.361-1.395-0.361c-0.092,0-0.124,0.016-0.135,0.058c-0.026-1.252,1.14-2.623,3.19-3.752
			c2.497-1.371,6.001-2.204,9.641-2.268l0.556-0.021c7.31,0,12.478,2.908,12.667,5.155c-0.2,0.2-1.076,0.541-1.666,0.762
			c-2.109,0.789-5.643,2.133-6.371,6.342c-0.664,3.833,1.994,7.504,4.567,11.053c2.246,3.099,4.566,6.312,4.619,9.353
			c0.174,8.915-7.262,16.01-11.499,19.319v-8.802c3.811-0.991,6.627-4.474,6.553-8.611c-0.11-4.704-4.008-8.538-8.891-8.538l0,0
			c-2.334,0.047-4.504,1.01-6.12,2.673c-1.619,1.686-2.484,3.892-2.434,6.21c0.087,3.974,2.876,7.306,6.57,8.245v8.379H108.037z
			 M110.201,97.198c-0.345,0-0.664,0.108-0.959,0.242c-1.917-0.432-3.412-2.075-3.452-4.126c-0.032-1.176,0.411-2.294,1.231-3.144
			c0.805-0.841,1.906-1.323,3.186-1.35c2.365,0,4.343,1.936,4.385,4.303c0.053,2.142-1.463,3.853-3.449,4.306
			C110.855,97.285,110.536,97.198,110.201,97.198z M112.363,145.752v-7.198c1.132,1.625,2.413,3.127,3.984,4.388
			c1.461,1.182,3.054,2.072,4.726,2.811H112.363L112.363,145.752z M137.658,145.752c2.225-1.102,4.239-2.631,5.843-4.624
			c2.89-3.607,4.208-8.121,3.712-12.72c-0.844-7.826-7.878-13.521-15.746-12.651c-1.182,0.121-2.046,1.191-1.909,2.368
			c0.127,1.181,1.107,2.088,2.373,1.909c5.517-0.591,10.389,3.375,10.984,8.827c0.38,3.46-0.606,6.855-2.8,9.556
			c-2.157,2.711-5.273,4.398-8.706,4.793c-4.515,0.491-8.865-0.796-12.34-3.606c-2.821-2.272-4.736-5.331-5.643-8.765
			c-0.18-2.156,0.221-4.472,2.083-6.027c-0.18,0.438-0.29,0.886-0.312,1.355c-0.101,0.147-0.232,0.253-0.321,0.411
			c-0.676,1.387-0.781,2.953-0.264,4.403c0.949,2.758,3.543,4.482,6.317,4.482c0.717,0,1.45-0.116,2.141-0.348
			c4.05-1.393,6.212-5.822,4.841-9.894c-1.661-4.81-6.865-7.361-11.686-5.716c-1.086,0.363-2.025,0.896-2.858,1.492
			c0.728-3.381,2.142-6.502,4.366-8.98c3.322-3.713,7.984-5.762,13.163-5.783c0.047,0,0.068,0,0.1,0
			c10.727,0,16.997,6.5,22.84,14.293c0.011,0.021,0.021,0.063,0.042,0.085c0.031,0.042,0.074,0.084,0.116,0.115
			c1.018,1.382,2.046,2.795,3.053,4.209c1.582,2.225,3.154,4.43,4.789,6.486c4.925,6.206,9.429,11.807,15.182,14.312
			L137.658,145.752L137.658,145.752z M119.349,130.507c1.413-0.021,2.721-0.744,3.48-1.92c0.527-0.822,0.675-1.777,0.559-2.742
			c0.143,0.264,0.343,0.485,0.454,0.775c0.606,1.814-0.349,3.792-2.142,4.403C120.846,131.309,119.955,131.072,119.349,130.507z"/>
		<path d="M218.162,161.863H2.159c-1.194,0-2.159,0.971-2.159,2.152c0,1.191,0.97,2.156,2.159,2.156h216.003
			c1.191,0,2.157-0.976,2.157-2.156C220.319,162.833,219.354,161.863,218.162,161.863z"/>
	</g>
</g>
<g>
</g>
<g>
</g>
<g>
</g>
<g>
</g>
<g>
</g>
<g>
</g>
<g>
</g>
<g>
</g>
<g>
</g>
<g>
</g>
<g>
</g>
<g>
</g>
<g>
</g>
<g>
</g>
<g>
</g>
</svg>
