<?xml version="1.0" encoding="iso-8859-1"?>
<!-- Generator: Adobe Illustrator 16.0.0, SVG Export Plug-In . SVG Version: 6.00 Build 0)  -->
<!DOCTYPE svg PUBLIC "-//W3C//DTD SVG 1.1//EN" "http://www.w3.org/Graphics/SVG/1.1/DTD/svg11.dtd">
<svg version="1.1" id="Capa_1" xmlns="http://www.w3.org/2000/svg" xmlns:xlink="http://www.w3.org/1999/xlink" x="0px" y="0px"
	 width="190.811px" height="190.811px" viewBox="0 0 223.228 223.228" style="enable-background:new 0 0 223.228 223.228;"
	 xml:space="preserve">
<g>
	<g>
		<path d="M17.401,159.572c13.5,2.027,21.324-7.746,30.357-19.114c2.01-2.533,3.943-5.243,5.9-7.989
			c1.245-1.748,2.487-3.465,3.742-5.151c0.061-0.079,0.131-0.128,0.186-0.201c0.03-0.036,0.03-0.079,0.064-0.128
			c7.188-9.645,14.958-17.664,28.25-17.664c0.03,0,0.07,0,0.106,0c6.421,0.018,12.233,2.575,16.368,7.197
			c2.875,3.227,4.683,7.312,5.544,11.74c-1.172-0.938-2.533-1.711-4.11-2.254c-5.824-1.979-12.196,1.121-14.191,6.942
			c-1.677,4.938,0.959,10.309,5.855,11.965c0.865,0.305,1.745,0.444,2.612,0.444c3.337,0,6.46-2.095,7.621-5.432
			c0.597-1.754,0.484-3.635-0.338-5.31c-0.81-1.668-2.226-2.904-3.979-3.507c-1.309-0.438-2.725,0.256-3.167,1.553v0.006
			c-0.691,0.81-0.834,1.984-0.237,2.916c0.594,0.938,1.696,1.316,2.713,1.054c0.049,0.073,0.149,0.085,0.186,0.165
			c0.231,0.469,0.262,0.998,0.101,1.479c-0.548,1.602-2.302,2.448-3.897,1.899c-2.308-0.779-3.541-3.318-2.749-5.639
			c1.105-3.221,4.64-4.95,7.849-3.836c5.371,1.846,5.793,6.662,5.145,10.547c-1.267,3.695-3.504,6.978-6.622,9.486
			c-4.338,3.495-9.788,5.061-15.332,4.482c-8.872-0.969-15.309-8.97-14.346-17.848c0.752-6.82,6.957-11.758,13.734-11.04
			c1.392,0.207,2.6-0.84,2.743-2.21c0.152-1.37-0.84-2.601-2.207-2.74c-9.594-1.06-18.188,5.906-19.229,15.454
			c-1.264,11.612,7.154,22.079,18.764,23.346c0.953,0.11,1.915,0.152,2.862,0.152c5.854,0,11.502-1.973,16.136-5.706
			c2.141-1.717,3.86-3.787,5.325-6.021v10.224c0,1.376,1.117,2.49,2.493,2.49c1.379,0,2.497-1.12,2.497-2.49v-10.054
			c1.445,2.168,3.123,4.178,5.209,5.852c4.628,3.727,10.272,5.706,16.136,5.706c0.944,0,1.906-0.049,2.862-0.152
			c5.62-0.614,10.668-3.38,14.218-7.788c3.538-4.408,5.151-9.932,4.537-15.558c-1.042-9.542-9.627-16.478-19.224-15.454
			c-1.37,0.14-2.356,1.382-2.204,2.74c0.146,1.37,1.395,2.43,2.74,2.21c6.904-0.712,12.987,4.226,13.736,11.04
			c0.47,4.293-0.767,8.524-3.471,11.892c-2.716,3.374-6.57,5.486-10.869,5.956c-5.565,0.578-10.997-0.987-15.332-4.482
			c-3.52-2.831-5.909-6.661-7.03-10.954c-0.273-3.55,0.637-7.453,5.325-9.079c3.239-1.09,6.753,0.633,7.854,3.824
			c0.384,1.139,0.311,2.344-0.207,3.416c-0.518,1.065-1.425,1.857-2.557,2.24c-0.779,0.262-1.596,0.22-2.326-0.134
			c-0.737-0.365-1.285-0.986-1.553-1.766c-0.165-0.481-0.134-1.011,0.098-1.474c0.036-0.085,0.14-0.104,0.188-0.164
			c1.017,0.262,2.112-0.122,2.716-1.048c0.603-0.925,0.456-2.112-0.237-2.923v-0.006c-0.445-1.297-1.863-1.991-3.167-1.553
			c-1.754,0.604-3.169,1.846-3.979,3.508c-0.811,1.668-0.929,3.543-0.323,5.297c0.691,2.04,2.146,3.678,4.077,4.628
			c1.114,0.542,2.308,0.81,3.501,0.81c0.883,0,1.766-0.14,2.618-0.444c2.393-0.81,4.317-2.496,5.426-4.768
			c1.107-2.259,1.267-4.811,0.45-7.222c-2.01-5.815-8.372-8.908-14.193-6.93c-1.462,0.506-2.729,1.218-3.837,2.076
			c0.883-4.359,2.667-8.391,5.505-11.562c4.135-4.622,9.95-7.174,16.368-7.197c0.03,0,0.072,0,0.109,0
			c13.292,0,21.062,8.025,28.247,17.664c0.03,0.043,0.037,0.092,0.067,0.128c0.055,0.079,0.128,0.128,0.183,0.201
			c1.254,1.687,2.49,3.403,3.745,5.151c1.948,2.746,3.891,5.456,5.9,7.988c9.03,11.375,16.824,21.179,30.348,19.114
			c5.438-0.828,10.218-3.787,13.464-8.336c3.312-4.646,4.634-10.528,3.629-16.148c-0.822-4.555-3.367-8.543-7.167-11.192
			c-3.812-2.643-8.422-3.652-12.988-2.831c-1.357,0.237-2.259,1.534-2.016,2.893c0.244,1.352,1.534,2.241,2.893,2.009
			c3.252-0.578,6.546,0.135,9.256,2.022c2.722,1.888,4.53,4.719,5.108,7.971c0.779,4.299-0.237,8.811-2.771,12.36
			c-2.46,3.447-6.071,5.682-10.163,6.309c-10.181,1.541-16.094-5.2-25.684-17.281c-1.193-1.504-2.345-3.142-3.502-4.749
			c1.699-0.067,3.416-0.518,5.097-1.462c4.598-2.6,6.248-8.464,3.66-13.104c-2.211-3.922-7.229-5.328-11.162-3.117
			c-1.638,0.919-2.825,2.436-3.324,4.256c-0.512,1.82-0.28,3.727,0.646,5.353c1.047,1.869,2.935,2.978,4.926,3.111
			c-2.49,0.134-4.524-1.607-5.942-3.386c-7.611-10.188-16.831-19.927-32.443-19.927c-0.036,0-0.085,0-0.122,0
			c-7.854,0.024-14.979,3.163-20.072,8.851c-1.139,1.273-2.067,2.716-2.954,4.178v-8.501l0.311-0.019
			c5.246-0.03,14.027-0.085,15.823-12.498c0.152-1.102,0.134-2.208,0.098-3.404c-0.116-3.172-0.237-6.771,5.114-13.713
			c0.53-0.691,0.652-1.613,0.342-2.43c-0.317-0.815-1.048-1.409-1.919-1.553c0,0-6.132-1.224-13.073,2.47
			c-0.414-1.565-0.98-2.933-1.51-4.189c-1.221-2.944-2.031-4.89-0.749-8.227c0.329-0.858,0.152-1.827-0.438-2.524
			c-0.612-0.7-1.541-0.986-2.445-0.797c-0.176,0.042-4.347,1.023-8.056,4.064c-2.831,2.32-5.824,6.171-5.9,12.133
			c-6.598-2.667-12.306-1.315-12.644-1.233c-0.855,0.204-1.541,0.849-1.796,1.684c-0.262,0.84-0.061,1.75,0.524,2.405
			c5.854,6.519,6.004,10.12,6.135,13.295c0.052,1.19,0.113,2.298,0.356,3.385c1.702,7.688,6.104,11.424,13.451,11.424
			c0.478,0,0.923-0.049,1.395-0.067v8.464c-0.91-1.521-1.888-3.014-3.072-4.335c-5.081-5.688-12.208-8.833-20.066-8.851
			c-0.043,0-0.079,0-0.125,0c-15.619,0-24.847,9.745-32.455,19.938c-1.419,1.778-3.41,3.52-5.94,3.374
			c1.994-0.135,3.885-1.236,4.932-3.1c0.929-1.645,1.16-3.551,0.648-5.365c-0.505-1.82-1.69-3.318-3.331-4.25
			c-3.934-2.217-8.948-0.81-11.161,3.124c-2.588,4.615-0.947,10.491,3.666,13.092c1.678,0.943,3.392,1.4,5.091,1.461
			c-1.16,1.602-2.308,3.239-3.504,4.743c-9.597,12.088-15.527,18.847-25.696,17.281c-4.092-0.627-7.697-2.861-10.15-6.302
			c-2.54-3.556-3.556-8.068-2.777-12.367c0.587-3.252,2.402-6.095,5.115-7.971c2.71-1.888,5.998-2.601,9.252-2.021
			c1.358,0.237,2.649-0.657,2.893-2.01c0.244-1.352-0.655-2.648-2.013-2.892c-4.567-0.811-9.173,0.182-12.988,2.837
			c-3.812,2.649-6.36,6.619-7.173,11.186c-1.014,5.614,0.308,11.503,3.629,16.148C7.181,155.784,11.97,158.75,17.401,159.572z
			 M175.093,122.1c-0.269-0.481-0.342-1.042-0.189-1.571c0.146-0.536,0.493-0.975,0.969-1.242c1.54-0.865,3.501-0.329,4.365,1.205
			c0.762,1.37,0.762,2.96,0.141,4.269c0.006-0.426-0.098-0.871-0.323-1.272c-0.456-0.815-1.303-1.267-2.186-1.267
			c-0.408,0-0.828,0.098-1.212,0.316C176.121,122.848,175.403,122.659,175.093,122.1z M99.176,96.628
			c-0.18-0.807-0.198-1.629-0.237-2.515c-0.122-2.98-0.286-6.865-4.29-12.531c2.457,0.191,5.608,0.94,8.644,3.099
			c0.84,0.603,1.97,0.609,2.832,0.037c0.858-0.575,1.279-1.623,1.042-2.631c-1.797-7.833,2.338-11.815,5.772-13.719
			c-0.019,2.762,0.916,5.009,1.771,7.073c0.853,2.049,1.659,3.982,1.784,6.583c0.037,0.943,0.604,1.778,1.452,2.165
			c0.871,0.393,1.857,0.268,2.595-0.332c2.801-2.25,5.809-3.191,8.165-3.565c-3.568,5.961-3.435,9.846-3.331,12.827
			c0.031,0.883,0.079,1.702-0.042,2.518c-1.176,8.168-5.688,8.193-10.909,8.223l-3.717,0.143
			C106.666,104.291,101.191,105.658,99.176,96.628z M46.514,122.531c-1.208-0.67-2.725-0.237-3.397,0.95
			c-0.226,0.396-0.326,0.847-0.32,1.272c-0.615-1.315-0.615-2.898,0.143-4.263c0.587-1.041,1.678-1.626,2.795-1.626
			c0.53,0,1.072,0.135,1.565,0.408c0.481,0.268,0.822,0.707,0.971,1.236c0.152,0.536,0.082,1.096-0.192,1.583
			C47.78,122.659,47.062,122.848,46.514,122.531z"/>
	</g>
</g>
<g>
</g>
<g>
</g>
<g>
</g>
<g>
</g>
<g>
</g>
<g>
</g>
<g>
</g>
<g>
</g>
<g>
</g>
<g>
</g>
<g>
</g>
<g>
</g>
<g>
</g>
<g>
</g>
<g>
</g>
</svg>
