<?xml version="1.0" encoding="iso-8859-1"?>
<!-- Generator: Adobe Illustrator 16.0.0, SVG Export Plug-In . SVG Version: 6.00 Build 0)  -->
<!DOCTYPE svg PUBLIC "-//W3C//DTD SVG 1.1//EN" "http://www.w3.org/Graphics/SVG/1.1/DTD/svg11.dtd">
<svg version="1.1" id="Capa_1" xmlns="http://www.w3.org/2000/svg" xmlns:xlink="http://www.w3.org/1999/xlink" x="0px" y="0px"
	 width="190.811px" height="190.811px" viewBox="0 0 256.006 256.006" style="enable-background:new 0 0 256.006 256.006;"
	 xml:space="preserve">
<g>
	<g>
		<path d="M254.501,143.244c-12.689-5.486-22.798,2.106-34.525,10.869c-2.381,1.784-4.75,3.757-7.124,5.724
			c1.692-5.742,0.883-11.6-2.582-17.184c0.292-0.371,0.651-0.651,0.896-1.053c1.156-2.083,1.412-4.494,0.755-6.747
			c-1.321-4.591-6.406-7.404-11.003-6.077c-4.701,1.364-7.417,6.297-6.077,11.021c1.108,3.764,4.604,6.381,8.524,6.381
			c0.841,0,1.669-0.115,2.466-0.347c0.146-0.042,0.256-0.152,0.396-0.2c4.5,7.599,2.765,15.752-4.957,23.188
			c-0.597,0.401-1.175,0.846-1.778,1.217c-0.176,0.11-0.39,0.22-0.565,0.342c-7.149,4.384-14.834,6.783-24.296,4.28
			c-5.584-1.479-10.071-4.89-13.031-9.554c13.11-6.893,22.524-18.377,27.2-31.603c0.262-0.317,0.548-0.646,0.628-1.072
			c2.49-14.729,16.16-24.765,30.457-22.35c1.37,0.249,2.655-0.679,2.887-2.046c0.219-1.358-0.688-2.643-2.046-2.874
			c-11.033-1.87-21.641,2.488-28.589,10.476c0.152-7.608-1.175-15.359-4.22-22.84c4.116-1.321,8.695-3.517,7.49-11.792
			c-0.524-3.666-3.775-6.591,0.268-17.028c0,0-6.893,0.868-11.326,7.246c-2.155-6.266-7.295-7.401-6.734-14.249
			c0,0-11.855,6.659-5.225,18.45c-7.502-2.576-13.676,1.004-13.676,1.004c9.535,5.861,8.72,10.163,10.516,13.399
			c4.348,7.849,9.779,6.11,13.993,4.546c0.012,0.03,0.012,0.063,0.024,0.088c8.969,21.772,2.155,46.171-15.15,60.407
			c3.995-6.862,5.358-15.004,3.435-22.962c3.239-2.989,7.361-9.161-3.666-15.622c-2.204-1.309-7.173-3.934-10.096-9.073
			c0,0-7.392,27.52,9.146,26.625c1.936,9.146-1.267,18.578-8.147,24.898c-1.383-5.249-1.048-11.076,1.071-16.617
			c0.5-1.285-0.134-2.734-1.425-3.222c-0.518-0.194-1.041-0.171-1.534-0.055c-1.029-0.061-2.027,0.499-2.473,1.511
			c-4.213,10.223-12.142,18.176-22.359,22.426c-0.706,0.292-1.437,0.523-2.174,0.779v-15.904c4.549-0.561,8.781-2.619,12.026-6.102
			c3.77-4.025,5.81-9.316,5.748-14.943l-0.098-10.412l-3.458,1.51c-0.158,0.067-16.824,7.201-26.981,0.362
			c-1.142-0.767-2.7-0.475-3.468,0.667c-0.764,1.148-0.466,2.691,0.67,3.465c9.365,6.309,22.204,3.343,28.312,1.361l0.024,3.096
			c0.036,4.336-1.522,8.416-4.408,11.496c-2.838,3.045-6.619,4.738-10.647,4.774c-0.058,0-0.101,0-0.131,0
			c-3.997,0-7.757-1.632-10.625-4.591c-2.923-3.021-4.558-7.082-4.582-11.412l-0.137-17.387c-0.018-1.66,1.453-3.398,4.059-4.777
			c3.142-1.678,7.462-2.618,12.154-2.655c7.626,0.131,12.754,3.136,12.777,5.325c-0.255,1.304-6.046,4.665-12.51,4.72
			c-0.095,0-0.17,0-0.256,0c-5.264,0-8.96-1.267-9.404-1.486c0.292-0.907,3.392-3.221,8.93-2.959
			c3.267,0.131,5.228,1.071,5.971,1.918c0.913,1.041,2.484,1.142,3.52,0.219c1.035-0.911,1.132-2.481,0.219-3.517
			c-1.918-2.165-5.304-3.44-9.523-3.605c-5.018-0.197-9.484,1.206-12.114,3.76c-1.303,1.267-1.976,2.688-1.964,4.098
			c0.061,6.491,13.226,6.546,14.678,6.564c7.14-0.061,17.504-3.87,17.461-9.712c-0.055-5.9-7.569-10.309-17.537-10.309
			c-0.091,0-0.18,0.006-0.268,0.006c-5.48,0.046-10.617,1.193-14.453,3.236c-4.357,2.32-6.759,5.593-6.723,9.204l0.137,17.405
			c0.058,5.621,2.189,10.888,6.013,14.846c3.179,3.301,7.237,5.268,11.609,5.846v15.746c-0.572-0.207-1.166-0.389-1.72-0.621
			c-10.203-4.25-18.134-12.202-22.347-22.42c-0.012-0.012-0.012-0.024-0.012-0.036c-0.5-1.291-1.927-1.937-3.23-1.425
			c-1.011,0.383-1.595,1.352-1.571,2.375c-0.006,0.097,0.036,0.182,0.042,0.279c0.024,0.183,0.024,0.378,0.106,0.566
			c2.195,5.712,2.439,11.709,0.904,17.08c-7.246-6.309-10.72-15.978-8.716-25.361c16.504,0.907,9.121-26.625,9.121-26.625
			c-2.898,5.14-7.876,7.764-10.083,9.073c-11.024,6.46-6.884,12.626-3.653,15.622c-1.946,7.988-0.56,16.16,3.48,23.022
			c-6.598-5.376-11.798-12.343-15.147-20.404c-5.368-12.909-5.386-27.152-0.049-40.064c0.012-0.03,0-0.064,0.012-0.094
			c4.229,1.571,9.646,3.297,13.993-4.546c1.79-3.242,0.953-7.538,10.519-13.399c0,0-6.174-3.578-13.667-1.004
			c6.628-11.792-5.233-18.45-5.233-18.45c0.569,6.853-4.582,7.982-6.734,14.248c-4.433-6.378-11.329-7.246-11.329-7.246
			c4.034,10.446,0.792,13.369,0.268,17.028c-1.185,8.27,3.373,10.477,7.477,11.792c-2.986,7.353-4.384,15.077-4.229,22.782
			c-1.541-1.756-3.23-3.403-5.148-4.807c-6.854-5.011-15.171-7-23.416-5.605c-1.358,0.231-2.268,1.516-2.037,2.874
			c0.216,1.355,1.452,2.265,2.874,2.046c6.896-1.172,13.892,0.506,19.628,4.713c5.767,4.229,9.603,10.489,10.799,17.625
			c0.083,0.414,0.356,0.706,0.594,1.023c0.354,0.999,0.661,2.009,1.078,2.995c5.261,12.666,14.678,22.773,26.755,28.961
			c-2.962,4.512-7.383,7.806-12.839,9.262c-9.389,2.49-16.998,0.176-24.037-4.11c-0.317-0.195-0.637-0.378-0.947-0.566
			c-0.548-0.347-1.087-0.737-1.623-1.114c-7.754-7.436-9.484-15.613-5-23.225c0.137,0.049,0.256,0.152,0.393,0.195
			c0.816,0.231,1.644,0.354,2.469,0.354h0.006c3.916,0,7.414-2.619,8.531-6.4c1.346-4.707-1.386-9.651-6.086-11.016
			c-4.604-1.314-9.685,1.498-11,6.078c-0.655,2.265-0.399,4.67,0.749,6.752c0.225,0.408,0.603,0.688,0.886,1.054
			c-3.456,5.577-4.265,11.441-2.569,17.184c-2.384-1.973-4.747-3.939-7.127-5.724c-11.728-8.769-21.86-16.361-34.525-10.863
			c-1.261,0.548-1.845,2.016-1.297,3.276c0.548,1.267,2.027,1.833,3.279,1.297c8.025-3.489,14.672-0.384,23.994,6.223
			c-6.604-0.371-12.614,2.144-17.409,7.667c-0.91,1.047-0.786,2.618,0.256,3.513c0.469,0.396,1.053,0.609,1.641,0.609
			c0.691,0,1.389-0.292,1.888-0.864c6.418-7.411,15.458-8.008,25.429-1.675c0.137,0.104,0.304,0.134,0.462,0.183
			c0.305,0.25,0.609,0.469,0.911,0.719c0.472,0.401,0.971,0.815,1.47,1.217c-1.428,0.062-2.85,0.323-4.29,0.792
			c-0.207-0.42-0.344-0.883-0.648-1.254c-1.547-1.912-4.016-2.783-5.979-2.783c-0.013,0-0.024,0-0.037,0
			c-4.153,0.299-7.441,2.04-9.804,5.194c-6.677,8.951-2.98,26.427-2.798,27.17l0.959,4.476l3.249-3.246
			c4.271-4.292,7.063-5.735,9.983-6.582c7.501-2.198,14.197-4.805,13.847-12.61c-0.131-2.729-1.02-4.641-2.244-6.096
			c4.059,0.548,8.412,3.002,13.387,6.168c0.387,0.232,0.792,0.329,1.19,0.348c4.573,2.198,9.49,3.635,14.939,3.635
			c2.777,0,5.7-0.377,8.756-1.169c6.908-1.851,12.495-6.126,16.1-11.983c5.624,2.289,11.548,3.459,17.452,3.446
			c3.836,0,7.663-0.536,11.435-1.497c3.761,0.961,7.578,1.51,11.421,1.497c5.991,0,11.995-1.169,17.694-3.52
			c0.135-0.061,0.231-0.134,0.372-0.17c3.599,5.991,9.237,10.352,16.264,12.227c3.057,0.828,5.968,1.182,8.744,1.182
			c5.444,0,10.364-1.438,14.943-3.636c0.401-0.023,0.828-0.115,1.181-0.347c4.993-3.167,9.341-5.614,13.396-6.169
			c-1.224,1.443-2.138,3.368-2.253,6.084c-0.359,7.83,6.345,10.437,13.858,12.629c2.917,0.84,5.712,2.271,9.98,6.563l3.239,3.252
			l0.969-4.481c0.164-0.737,3.878-18.219-2.808-27.164c-2.351-3.154-5.65-4.901-10.12-5.206c-1.662,0-4.141,0.877-5.699,2.795
			c-0.305,0.384-0.414,0.834-0.64,1.248c-1.431-0.469-2.868-0.73-4.293-0.779c0.487-0.408,0.986-0.815,1.474-1.224
			c0.305-0.25,0.597-0.475,0.901-0.725c0.158-0.055,0.341-0.086,0.475-0.171c9.986-6.356,18.998-5.761,25.429,1.669
			c0.487,0.572,1.182,0.877,1.888,0.877c0.591,0,1.175-0.207,1.644-0.621c1.042-0.914,1.163-2.473,0.256-3.508
			c-4.811-5.541-10.796-8.05-17.415-7.666c9.329-6.619,15.973-9.725,23.998-6.229c1.248,0.536,2.733-0.036,3.281-1.297
			C256.346,145.278,255.756,143.805,254.501,143.244z M206.805,139.201c-0.512,0.907-1.333,1.571-2.338,1.863
			c-2.021,0.578-4.244-0.646-4.805-2.643c-0.615-2.07,0.603-4.257,2.667-4.841c0.365-0.104,0.719-0.152,1.084-0.152
			c1.717,0,3.252,1.169,3.738,2.825C207.407,137.234,207.298,138.282,206.805,139.201z M48.879,136.229
			c0.475-1.656,2.006-2.812,3.742-2.812c0.369,0,0.716,0.061,1.084,0.151c2.064,0.597,3.249,2.759,2.682,4.817
			c-0.6,2.003-2.776,3.251-4.834,2.654c-0.99-0.292-1.812-0.938-2.317-1.863C48.706,138.282,48.587,137.234,48.879,136.229z
			 M31.358,184.432c-3.087,0.895-5.772,2.313-8.622,4.64c-0.649-5.748-0.731-14.188,2.643-18.693
			c1.458-1.961,3.486-3.008,6.123-3.203c0.292,0,1.291,0.292,1.827,0.949c0.088,0.11,0.024,0.263,0.076,0.391
			c-2.582,1.802-5.151,4.469-7.663,8.366c-0.743,1.169-0.393,2.71,0.755,3.452c0.411,0.269,0.889,0.396,1.352,0.396
			c0.816,0,1.62-0.408,2.095-1.163c2.207-3.453,4.359-5.778,6.54-7.228c0.101-0.013,0.301-0.037,0.648-0.037
			c3.836,0,4.39,2.576,4.485,4.518C41.752,179.974,40.318,181.825,31.358,184.432z M105.694,164.544
			c-0.174-0.134-0.362-0.292-0.584-0.39c-1.385-0.536-2.652-1.235-3.885-1.96c0.953-2.729,1.632-5.554,1.763-8.465
			c4.074,5.049,9.198,9.171,15.092,12.143C113.933,166.066,109.774,165.628,105.694,164.544z M150.121,164.179
			c-0.226,0.086-0.408,0.231-0.591,0.378c-4.067,1.083-8.227,1.516-12.379,1.327c6.29-3.185,11.66-7.672,15.861-13.189
			c0.037,3.179,0.652,6.248,1.645,9.195C153.232,162.754,151.734,163.546,150.121,164.179z M218.861,172.302
			c0.371,0,0.585,0.024,0.651,0.037c2.174,1.449,4.329,3.774,6.534,7.228c0.475,0.743,1.278,1.163,2.106,1.163
			c0.463,0,0.92-0.135,1.34-0.396c1.175-0.742,1.498-2.283,0.755-3.452c-2.484-3.897-5.061-6.564-7.654-8.379
			c0.055-0.115-0.012-0.268,0.079-0.378c0.536-0.657,1.522-0.949,1.79-0.949c2.667,0.183,4.689,1.23,6.156,3.203
			c3.361,4.487,3.276,12.934,2.637,18.682c-2.85-2.314-5.522-3.745-8.61-4.628c-8.969-2.606-10.406-4.458-10.266-7.612
			C214.478,174.89,215.031,172.302,218.861,172.302z"/>
	</g>
</g>
<g>
</g>
<g>
</g>
<g>
</g>
<g>
</g>
<g>
</g>
<g>
</g>
<g>
</g>
<g>
</g>
<g>
</g>
<g>
</g>
<g>
</g>
<g>
</g>
<g>
</g>
<g>
</g>
<g>
</g>
</svg>
