<?xml version="1.0" encoding="iso-8859-1"?>
<!-- Generator: Adobe Illustrator 16.0.0, SVG Export Plug-In . SVG Version: 6.00 Build 0)  -->
<!DOCTYPE svg PUBLIC "-//W3C//DTD SVG 1.1//EN" "http://www.w3.org/Graphics/SVG/1.1/DTD/svg11.dtd">
<svg version="1.1" id="Capa_1" xmlns="http://www.w3.org/2000/svg" xmlns:xlink="http://www.w3.org/1999/xlink" x="0px" y="0px"
	 width="190.811px" height="190.811px" viewBox="0 0 240.901 240.901" style="enable-background:new 0 0 240.901 240.901;"
	 xml:space="preserve">
<g>
	<g>
		<path d="M238.702,134.803c1.197,0,2.157-0.971,2.157-2.162c0-1.182-0.981-2.151-2.157-2.151h-62.089
			c0.353-2.985,0.3-5.996-0.175-9.016c2.647-0.427,6.286-1.743,6.592-7.57c0.032-0.593-0.042-1.205-0.115-1.846
			c-0.19-1.466-0.38-3.003,1.745-6.378c0.422-0.664,0.332-1.5-0.068-2.193c-0.375-0.691-1.234-1.123-2.015-1.123
			c-0.817,0-3.116,0.118-5.542,1.416c-0.185-0.396-0.375-0.778-0.564-1.107c-0.696-1.302-1.039-1.964-0.675-3.304
			c0.221-0.778,0-1.595-0.575-2.138c-0.564-0.551-1.419-0.752-2.157-0.493c-0.231,0.076-2.336,0.788-4.149,2.586
			c-1.619,1.598-2.5,3.56-2.621,5.735c-2.547-0.49-5.458,0.195-5.669,0.282c-0.718,0.242-1.25,0.847-1.413,1.593
			c-0.158,0.751,0.095,1.519,0.648,2.035c2.932,2.716,3.143,4.24,3.343,5.729c0.101,0.644,0.18,1.237,0.359,1.804
			c1.213,3.773,3.591,5.703,7.066,5.703c0.521,0,0.996-0.092,1.471-0.153c0.543,3.291,0.554,6.582-0.058,9.788
			c-0.105,0.232-0.143,0.485-0.158,0.749c-0.749,3.428-2.099,6.739-4.103,9.745c-0.232,0.348-0.549,0.622-0.791,0.971
			c-0.733,0.269-1.234,0.896-1.377,1.682c-4.113,4.814-9.561,8.18-15.867,9.429c-5.511,1.118-10.927-0.021-15.446-2.647
			c0.712,0.111,1.429,0.158,2.146,0.158c1.197,0,2.384-0.11,3.586-0.353c5.621-1.118,10.479-4.309,13.679-8.965
			c1.962-2.848,3.049-6.064,3.46-9.376c1.466-0.738,4.366-2.531,4.904-5.695c0.464-2.658-0.886-5.366-4.282-8.248
			c-1.118-0.934-3.195-2.674-4.092-5.244c-0.307-0.82-1.045-1.403-1.915-1.448c-0.886-0.031-1.692,0.448-2.083,1.237
			c-0.517,1.091-4.936,10.887-1.471,16.36c0.754,1.208,2.146,2.542,4.614,3.122c-0.369,2.404-1.239,4.735-2.669,6.824
			c-2.573,3.733-6.465,6.285-10.979,7.182c-3.565,0.718-7.172,0.011-10.149-1.956c-2.001-1.329-3.509-3.153-4.49-5.269
			c-0.358-1.018-0.746-2.046-0.968-3.153c0-0.011-0.01-0.021-0.016-0.031c-0.81-5.21,2.742-10.23,8.135-11.296
			c2.024-0.433,4.103-0.031,5.811,1.086c1.693,1.087,2.843,2.764,3.238,4.704c0.591,2.995-1.455,5.948-4.566,6.571
			c-1.171,0.231-1.92,1.371-1.688,2.541c0.237,1.16,1.297,1.92,2.552,1.698c5.453-1.097,9.018-6.328,7.952-11.654
			c-0.616-3.09-2.431-5.756-5.12-7.496c-2.668-1.722-5.854-2.32-9.007-1.69c-0.955,0.19-1.859,0.483-2.711,0.823
			c3.164-3.214,6.429-7.918,6.339-13.761c-0.09-3.283-2.146-6.149-3.971-8.667c-1.3-1.803-2.779-3.844-2.579-5.02
			c0.124-0.783,0.599-1.065,2.157-1.659c1.229-0.464,3.491-1.329,3.454-3.787c-0.101-4.282-5.487-7.522-12.962-7.522
			c-0.005,0-0.01,0-0.021,0c-4.601,0.098-8.667,1.529-10.908,3.874c-1.191,1.237-1.793,2.679-1.759,4.164
			c0.053,2.462,2.365,3.235,3.607,3.644c1.582,0.53,2.057,0.789,2.223,1.566c0.256,1.179-1.084,3.18-2.365,5.12
			c-1.722,2.592-3.676,5.535-3.623,8.844c0.113,6.188,4.019,10.948,7.465,14.015c-1.308-0.736-2.719-1.329-4.271-1.648
			c-3.133-0.609-6.357-0.026-9.021,1.706c-2.682,1.74-4.498,4.396-5.107,7.496c-0.519,2.542,0,5.147,1.458,7.319
			c1.495,2.258,3.797,3.787,6.476,4.335c1.181,0.2,2.315-0.538,2.547-1.698c0.232-1.154-0.535-2.31-1.695-2.541
			c-1.532-0.316-2.851-1.192-3.715-2.479c-0.81-1.224-1.102-2.669-0.81-4.093c0.382-1.94,1.521-3.628,3.241-4.714
			c1.7-1.107,3.757-1.509,5.809-1.098c5.384,1.087,8.938,6.117,8.124,11.317c-0.013,0.011-0.024,0.021-0.024,0.031
			c-0.211,1.097-0.588,2.125-0.959,3.133c-2.458,5.305-8.435,8.469-14.639,7.245c-7.301-1.455-12.551-7.234-13.624-14.006
			c2.418-0.602,3.829-1.914,4.578-3.111c3.472-5.484-0.96-15.28-1.469-16.371c-0.372-0.789-1.21-1.237-2.067-1.237
			c-0.876,0.045-1.643,0.612-1.922,1.448c-0.886,2.544-2.879,4.219-4.359,5.476c-3.122,2.658-4.472,5.358-4.008,8.026
			c0.541,3.175,3.441,4.968,4.92,5.706c1.071,8.828,7.739,16.464,17.123,18.331c1.195,0.242,2.365,0.348,3.528,0.348
			c0.788,0,1.532-0.095,2.294-0.189c-4.535,2.657-9.991,3.797-15.546,2.679c-14.985-2.985-24.78-17.36-22.352-32.324
			c0.493,0.063,0.973,0.145,1.463,0.145c3.483,0,5.854-1.917,7.08-5.698c0.179-0.577,0.282-1.17,0.355-1.813
			c0.19-1.469,0.396-3.009,3.344-5.725c0.562-0.517,0.804-1.279,0.648-2.03c-0.153-0.744-0.696-1.355-1.416-1.598
			c-0.211-0.074-3.108-0.772-5.669-0.285c-0.113-2.162-1.015-4.132-2.623-5.734c-1.822-1.783-3.926-2.519-4.158-2.587
			c-0.757-0.243-1.596-0.066-2.167,0.49c-0.562,0.557-0.789,1.382-0.572,2.144c0.379,1.351,0.032,2.004-0.665,3.322
			c-0.177,0.335-0.366,0.707-0.562,1.095c-2.444-1.273-4.936-1.366-5.956-1.408c-0.765,0.053-1.44,0.501-1.78,1.187
			c-0.335,0.675-0.309,1.481,0.113,2.133c2.139,3.399,1.943,4.915,1.754,6.395c-0.087,0.643-0.135,1.236-0.113,1.835
			c0.292,5.822,3.92,7.14,6.578,7.567c-0.487,3.051-0.546,6.085-0.179,9.018H2.149c-1.192,0-2.149,0.97-2.149,2.157
			c0,1.191,0.973,2.151,2.149,2.151h63.882c0.778,2.921,1.928,5.706,3.452,8.269H2.149c-1.192,0-2.149,0.971-2.149,2.151
			c0,1.202,0.973,2.157,2.149,2.157h70.342c4.612,5.553,11.08,9.65,18.705,11.153c1.743,0.348,3.488,0.532,5.21,0.532
			c9.263,0,17.816-4.894,22.594-12.635v7.831c0,1.207,0.984,2.162,2.16,2.162c1.194,0,2.162-0.971,2.162-2.162v-7.156
			c4.859,7.314,13.123,11.96,22.099,11.96c1.714,0,3.47-0.169,5.21-0.532c7.383-1.461,13.784-5.464,18.541-11.153h69.578
			c1.191,0,2.151-0.976,2.151-2.157c0-1.187-0.971-2.151-2.151-2.151h-66.382c1.539-2.615,2.699-5.39,3.459-8.269h62.886v-0.053
			H238.702z M151.886,127.82c-1.107-1.761-0.664-5.136,0.222-8.171c1.123,1.339,2.31,2.339,3.148,3.035
			c1.829,1.556,2.747,2.985,2.578,4.013c-0.084,0.417-0.358,0.807-0.706,1.191c-0.063-0.385-0.043-0.785-0.116-1.181
			c-0.232-1.176-1.36-1.928-2.542-1.693c-1.171,0.243-1.92,1.371-1.688,2.553c0.084,0.38,0.063,0.77,0.116,1.149
			C152.286,128.38,152.013,128,151.886,127.82z M87.292,125.005c-1.203-0.232-2.31,0.537-2.542,1.697
			c-0.092,0.401-0.055,0.791-0.113,1.192c-0.345-0.369-0.633-0.771-0.704-1.192c-0.171-1.022,0.741-2.446,2.842-4.239
			c0.696-0.588,1.783-1.519,2.84-2.803c0.854,2.953,1.355,6.372,0.232,8.155c-0.114,0.185-0.383,0.559-0.984,0.886
			c0.05-0.391,0.026-0.775,0.114-1.165C89.224,126.376,88.465,125.236,87.292,125.005z M67.226,117.36
			c-2.7-0.276-4.002-0.54-4.164-3.688c-0.016-0.351,0.042-0.701,0.098-1.07c0.188-1.469,0.274-3.001-0.335-4.957
			c0.527,0.287,1.042,0.664,1.556,1.163c0.572,0.562,1.463,0.759,2.207,0.485c0.772-0.264,1.318-0.938,1.442-1.732
			c0.15-1.112,0.572-1.914,1.076-2.858c0.335-0.604,0.691-1.29,0.955-2.078c1.194,1.315,1.447,2.953,0.783,4.973
			c-0.285,0.854-0.011,1.788,0.686,2.365c0.707,0.562,1.68,0.63,2.447,0.188c0.593-0.349,1.237-0.609,1.912-0.786
			c-1.092,1.738-1.4,3.238-1.593,4.715c-0.066,0.366-0.098,0.722-0.195,1.052c-0.793,2.5-1.906,2.7-2.953,2.7
			c-0.69,0-1.384-0.113-2.02-0.222L67.226,117.36z M118.969,125.943c-0.055-0.063-0.103-0.111-0.14-0.18
			c0.053,0.048,0.103,0.079,0.14,0.11V125.943z M121.88,112.251c-0.232-0.093-0.478-0.146-0.751-0.146s-0.535,0.068-0.783,0.156
			c-0.973-0.335-1.685-1.208-1.695-2.273c-0.016-0.664,0.227-1.284,0.686-1.767c0.464-0.475,1.071-0.743,1.788-0.765
			c1.355,0,2.437,1.058,2.463,2.413C123.628,110.998,122.885,111.926,121.88,112.251z M123.298,116.274
			c2.71-0.938,4.672-3.468,4.617-6.474c-0.09-3.733-3.056-6.655-6.926-6.655c-1.825,0.045-3.509,0.789-4.77,2.091
			c-1.258,1.305-1.922,3.034-1.898,4.838c0.053,2.916,2.001,5.329,4.627,6.23v4.219c-2.987-2.431-6.827-6.539-6.908-11.686
			c-0.042-1.949,1.458-4.195,2.89-6.373c1.771-2.689,3.628-5.474,3.003-8.419c-0.704-3.304-3.457-4.216-5.076-4.768
			c-0.147-0.055-0.334-0.113-0.514-0.166c0.113-0.211,0.279-0.406,0.417-0.564c1.154-1.213,4.034-2.454,8.213-2.536
			c4.271,0,7.317,1.495,8.056,2.758c-0.156,0.071-0.335,0.127-0.49,0.18c-1.619,0.611-4.327,1.647-4.889,4.967
			c-0.517,2.966,1.452,5.667,3.327,8.279c1.529,2.123,3.108,4.303,3.151,6.236c0.115,5.374-3.919,9.785-6.856,12.279v-4.459h0.016
			v0.021H123.298z M172.642,117.593c-0.633,0.113-1.328,0.232-2.014,0.232c-1.055,0-2.152-0.211-2.953-2.71
			c-0.116-0.335-0.148-0.686-0.201-1.06c-0.2-1.469-0.511-2.969-1.592-4.702c0.664,0.161,1.318,0.425,1.914,0.786
			c0.785,0.422,1.745,0.364,2.446-0.198c0.696-0.562,0.971-1.49,0.686-2.355c-0.774-2.344-0.158-3.937,0.765-5.007
			c0.264,0.788,0.617,1.469,0.96,2.102c0.496,0.944,0.929,1.743,1.076,2.855c0.11,0.804,0.659,1.479,1.435,1.746
			c0.785,0.269,1.624,0.087,2.204-0.488c0.517-0.506,1.044-0.873,1.582-1.176c-0.602,1.967-0.517,3.488-0.332,4.957
			c0.058,0.372,0.11,0.735,0.089,1.075c-0.158,3.148-1.46,3.417-4.16,3.697L172.642,117.593z"/>
	</g>
</g>
<g>
</g>
<g>
</g>
<g>
</g>
<g>
</g>
<g>
</g>
<g>
</g>
<g>
</g>
<g>
</g>
<g>
</g>
<g>
</g>
<g>
</g>
<g>
</g>
<g>
</g>
<g>
</g>
<g>
</g>
</svg>
