<?xml version="1.0"?>
<svg xmlns="http://www.w3.org/2000/svg" xmlns:xlink="http://www.w3.org/1999/xlink" xmlns:svgjs="http://svgjs.com/svgjs" version="1.1" width="512" height="512" x="0" y="0" viewBox="0 0 193.34 193.34" style="enable-background:new 0 0 512 512" xml:space="preserve" class=""><g>
<g xmlns="http://www.w3.org/2000/svg">
	<g>
		<path d="M118.848,60.896c0.031,0,0.068,0,0.1,0c11.507,0,18.235,6.95,24.464,15.304c0.026,0.031,0.031,0.068,0.053,0.1    c0.047,0.069,0.11,0.111,0.152,0.169c1.087,1.466,2.162,2.958,3.249,4.478c1.688,2.367,3.364,4.725,5.1,6.913    c7.82,9.84,14.549,18.325,26.293,16.548c4.704-0.717,8.849-3.274,11.654-7.214c2.869-4.019,4.013-9.112,3.143-13.985    c-0.712-3.955-2.916-7.393-6.206-9.687c-3.302-2.299-7.294-3.185-11.249-2.458c-1.176,0.211-1.956,1.334-1.745,2.51    c0.211,1.17,1.329,1.935,2.505,1.74c2.821-0.501,5.669,0.111,8.016,1.75c2.352,1.635,3.924,4.087,4.425,6.903    c0.675,3.729-0.206,7.631-2.399,10.71c-2.131,2.979-5.253,4.92-8.797,5.464c-8.833,1.328-13.948-4.509-22.248-14.966    c-1.034-1.302-2.03-2.721-3.038-4.119c1.467-0.053,2.959-0.443,4.409-1.255c3.981-2.252,5.41-7.335,3.169-11.349    c-1.914-3.401-6.254-4.619-9.666-2.7c-1.424,0.797-2.447,2.109-2.885,3.681c-0.433,1.572-0.237,3.222,0.56,4.635    c0.901,1.619,2.531,2.573,4.25,2.695c-2.125,0.116-3.897-1.397-5.131-2.937c-6.587-8.828-14.57-17.25-28.087-17.25    c-0.036,0-0.079,0-0.11,0c-6.808,0.021-12.973,2.748-17.387,7.673c-0.986,1.103-1.793,2.353-2.552,3.618v-7.367l0.264-0.011    c4.535-0.026,12.145-0.074,13.7-10.826c0.132-0.96,0.11-1.914,0.084-2.953c-0.1-2.748-0.205-5.864,4.43-11.871    c0.459-0.601,0.564-1.397,0.296-2.104c-0.28-0.707-0.913-1.224-1.656-1.345c0-0.005-5.305-1.055-11.327,2.13    c-0.358-1.355-0.85-2.531-1.313-3.628c-1.055-2.547-1.756-4.234-0.644-7.124c0.285-0.744,0.132-1.587-0.385-2.184    c-0.521-0.601-1.339-0.859-2.12-0.69c-0.147,0.037-3.757,0.881-6.977,3.512c-2.449,2.01-5.041,5.353-5.107,10.516    c-5.713-2.31-10.66-1.139-10.95-1.07c-0.741,0.179-1.334,0.732-1.556,1.466c-0.227,0.728-0.055,1.514,0.454,2.083    c5.065,5.643,5.2,8.759,5.313,11.507c0.045,1.039,0.098,1.998,0.309,2.937c1.474,6.655,5.287,9.893,11.651,9.893    c0.417,0,0.802-0.037,1.205-0.053v7.325c-0.788-1.318-1.635-2.605-2.66-3.754c-4.403-4.926-10.573-7.652-17.379-7.673    c-0.037,0-0.071,0-0.108,0c-13.516,0-21.502,8.427-28.091,17.249c-1.237,1.54-3.022,3.069-5.139,2.942    c1.722-0.121,3.354-1.081,4.255-2.694c0.805-1.424,1.002-3.069,0.562-4.641c-0.442-1.571-1.463-2.879-2.884-3.681    c-3.407-1.915-7.75-0.702-9.661,2.705c-2.247,3.997-0.82,9.091,3.169,11.349c1.453,0.812,2.938,1.202,4.406,1.25    c-1.005,1.397-1.996,2.816-3.035,4.119c-8.303,10.462-13.413,16.321-22.251,14.961c-3.544-0.538-6.666-2.474-8.794-5.453    c-2.196-3.08-3.077-6.982-2.402-10.71c0.509-2.816,2.081-5.273,4.427-6.903c2.344-1.64,5.191-2.268,8.016-1.751    c1.176,0.201,2.299-0.569,2.505-1.74c0.211-1.176-0.567-2.299-1.746-2.51c-3.953-0.723-7.947,0.158-11.249,2.457    c-3.298,2.294-5.5,5.732-6.209,9.688c-0.881,4.867,0.266,9.967,3.143,13.985c2.813,3.939,6.951,6.508,11.654,7.219    c11.702,1.772,18.468-6.707,26.291-16.553c1.74-2.188,3.415-4.541,5.104-6.914c1.079-1.519,2.16-3.011,3.251-4.477    c0.048-0.063,0.108-0.105,0.15-0.169c0.021-0.031,0.026-0.068,0.05-0.1c6.23-8.353,12.954-15.303,24.466-15.303    c0.031,0,0.065,0,0.097,0c5.561,0.021,10.594,2.23,14.175,6.233c2.489,2.79,4.055,6.333,4.801,10.172    c-1.015-0.817-2.193-1.487-3.559-1.956c-5.055-1.74-10.563,0.965-12.29,6.017c-1.453,4.271,0.83,8.917,5.075,10.362    c0.744,0.259,1.506,0.38,2.257,0.38c2.89,0,5.6-1.814,6.605-4.699c1.073-3.132-0.601-6.555-3.733-7.63    c-1.139-0.391-2.36,0.216-2.742,1.345c0,0.005,0,0.005,0,0.01c-0.599,0.707-0.723,1.719-0.206,2.531    c0.515,0.807,1.464,1.128,2.35,0.907c0.282,0.422,0.427,0.918,0.248,1.43c-0.475,1.387-1.975,2.141-3.375,1.645    c-1.999-0.675-3.067-2.869-2.381-4.878c0.958-2.79,4.013-4.282,6.8-3.328c4.648,1.598,5.015,5.774,4.453,9.134    c-1.097,3.201-3.035,6.043-5.734,8.211c-3.763,3.026-8.478,4.388-13.279,3.881c-7.683-0.838-13.257-7.773-12.424-15.456    c0.646-5.912,6.03-10.173,11.899-9.566c1.237,0.174,2.252-0.728,2.378-1.909c0.129-1.187-0.73-2.251-1.912-2.378    c-8.321-0.955-15.752,5.11-16.653,13.389c-0.751,6.866,2.473,13.22,7.765,16.944c-0.314,0.011-0.58-0.011-0.896,0    c-12.933,0.58-22.621,5.094-28.972,11.364c-3.262,3.032-5.74,6.84-7.235,11.132c-0.271,0.738-0.498,1.492-0.701,2.247    c-0.164,0.638-0.33,1.266-0.448,1.919c-0.216,1.134-0.348,2.268-0.412,3.401c-4.88-0.116-11.747,0.301-13.629,10.589    c-0.179,0.976-0.195,1.957-0.2,3.022c-0.005,2.842-0.021,6.074-5.055,12.107c-0.485,0.58-0.619,1.382-0.372,2.088    c0.248,0.729,0.862,1.256,1.603,1.419c0,0.005,5.658,1.018,11.296-1.556c0.126,2.7,0.907,5.126,2.354,7.246    c3.684,5.41,10.315,6.723,10.589,6.775c0.137,0.021,0.271,0.043,0.406,0.043c0.648,0,1.269-0.296,1.685-0.802    c0.496-0.622,0.617-1.472,0.304-2.204c-1.271-2.959-0.612-4.73,0.393-7.415c0.438-1.165,0.902-2.42,1.231-3.865    c5.848,2.88,11.778,1.782,11.783,1.788c0.738-0.158,1.351-0.691,1.604-1.414c0.248-0.717,0.113-1.502-0.372-2.088    c-5.028-6.033-5.039-9.271-5.044-12.118c-0.005-1.05-0.021-2.036-0.2-3.017c-1.912-10.525-9.044-10.736-13.97-10.584    c0.383-5.7,3.014-11.406,7.9-16.025c0.638-0.564,1.258-1.129,1.957-1.619c0.113-0.095,0.232-0.164,0.34-0.253    c3.687-2.468,8.111-3.919,12.867-3.919c10.012,0,18.154,8.148,18.154,18.151c0,7.214-5.469,13.11-12.467,13.928    c-0.345-0.854-0.849-1.651-1.524-2.326c-2.586-2.547-7.064-2.499-9.634,0.101c-2.619,2.663-2.579,6.992,0.097,9.624    c1.282,1.25,2.972,1.951,4.765,1.951l0,0c1.84,0,3.562-0.733,4.859-2.046c0.826-0.844,1.305-1.904,1.603-3.012    c3.845-0.379,7.322-1.914,10.109-4.303c1.416,2.869,4.348,5.653,10.471,5.653c6.729,0,14.014-3.449,14.319-3.586    c0.715-0.343,1.185-1.044,1.227-1.841c0.045-0.791-0.351-1.534-1.021-1.945c-3.678-2.268-5.142-3.972-6.193-5.838    c-2.84-5.068-6.044-9.455-11.642-7.879c-0.298,0.084-0.509,0.206-0.772,0.306c-0.53-9.767-7.27-17.824-16.369-20.355    c1.493-0.2,2.911-0.469,4.509-0.543c15.662-0.717,24.469,3.407,29.344,7.436c-3.639,4.271-5.782,9.45-5.782,14.665    c0,1.192,0.965,2.157,2.159,2.157s2.159-0.976,2.159-2.157c0-2.895,0.892-5.79,2.371-8.474v7.198c0,1.191,0.967,2.146,2.159,2.146    c1.194,0,2.165-0.96,2.165-2.146v-7.029c1.413,2.626,2.262,5.474,2.262,8.305c0,1.192,0.965,2.157,2.157,2.157    c1.197,0,2.156-0.976,2.156-2.157c0-5.289-2.104-10.383-5.774-14.665c4.884-4.023,13.711-8.11,29.353-7.436    c1.593,0.074,3.017,0.338,4.498,0.543c-9.102,2.531-15.847,10.589-16.369,20.355c-0.264-0.1-0.475-0.222-0.78-0.306    c-5.553-1.576-8.78,2.811-11.633,7.873c-1.039,1.861-2.494,3.56-6.191,5.844c-0.675,0.411-1.065,1.16-1.018,1.945    c0.042,0.791,0.512,1.492,1.224,1.841c0.306,0.137,7.588,3.586,14.317,3.586c6.122,0,9.055-2.784,10.468-5.653    c2.789,2.384,6.265,3.924,10.114,4.303c0.306,1.118,0.786,2.162,1.608,3.006c1.292,1.318,3.021,2.052,4.856,2.052    c1.799,0,3.486-0.701,4.763-1.951c1.302-1.276,2.03-2.995,2.046-4.82c0.011-1.813-0.681-3.522-1.951-4.814    c-2.547-2.589-7.04-2.637-9.624-0.095c-0.681,0.664-1.187,1.466-1.529,2.32c-6.998-0.817-12.472-6.713-12.472-13.928    c0-10.014,8.147-18.15,18.156-18.15c4.762,0,9.191,1.455,12.878,3.923c0.105,0.085,0.211,0.143,0.311,0.222    c0.707,0.496,1.34,1.076,1.988,1.65c4.878,4.609,7.51,10.32,7.89,16.021c-4.895-0.127-12.04,0.053-13.97,10.583    c-0.18,0.976-0.195,1.957-0.2,3.022c-0.006,2.842-0.016,6.074-5.047,12.107c-0.485,0.58-0.617,1.382-0.369,2.088    c0.248,0.729,0.859,1.25,1.604,1.419c0,0,1.123,0.237,2.916,0.237c2.341,0,5.553-0.396,8.875-2.025    c0.327,1.45,0.791,2.7,1.229,3.871c1.002,2.679,1.656,4.451,0.385,7.409c-0.316,0.738-0.2,1.582,0.307,2.204    c0.416,0.517,1.033,0.797,1.682,0.797c0.132,0,0.27-0.011,0.401-0.032c0.158-0.037,3.896-0.765,7.304-3.343    c2.6-1.983,5.41-5.326,5.652-10.685c5.638,2.573,11.291,1.556,11.296,1.556c0.744-0.152,1.351-0.69,1.604-1.413    c0.248-0.718,0.11-1.503-0.369-2.089c-5.031-6.032-5.042-9.271-5.047-12.118c-0.005-1.049-0.021-2.035-0.2-3.017    c-1.888-10.293-8.765-10.715-13.632-10.589c-0.063-1.134-0.195-2.272-0.406-3.401c-0.121-0.653-0.29-1.275-0.448-1.914    c-0.206-0.76-0.433-1.508-0.712-2.257c-1.492-4.293-3.96-8.09-7.225-11.116c-6.35-6.271-16.042-10.79-28.967-11.37    c-0.316-0.011-0.58,0.011-0.892,0c1.397-0.986,2.711-2.099,3.808-3.47c3.069-3.818,4.467-8.611,3.934-13.474    c-0.901-8.274-8.348-14.302-16.647-13.389c-1.187,0.126-2.041,1.197-1.915,2.378c0.132,1.181,1.203,2.094,2.379,1.909    c5.943-0.602,11.243,3.654,11.892,9.565c0.406,3.718-0.665,7.378-3.006,10.299c-2.353,2.917-5.69,4.751-9.413,5.158    c-4.799,0.506-9.519-0.854-13.278-3.882c-3.049-2.452-5.121-5.769-6.091-9.492c-0.237-3.079,0.554-6.454,4.608-7.857    c2.779-0.949,5.843,0.543,6.798,3.317c0.337,0.98,0.264,2.03-0.185,2.953c-0.443,0.923-1.229,1.608-2.21,1.94    c-0.67,0.227-1.392,0.185-2.02-0.121c-0.633-0.312-1.112-0.849-1.345-1.519c-0.143-0.422-0.116-0.876,0.084-1.282    c0.032-0.074,0.122-0.089,0.164-0.148c0.881,0.222,1.83-0.105,2.347-0.907c0.521-0.807,0.39-1.825-0.206-2.531    c0-0.005,0-0.005,0-0.01c-0.385-1.129-1.619-1.725-2.742-1.345c-1.519,0.521-2.742,1.603-3.448,3.042    c-0.702,1.445-0.802,3.069-0.28,4.593c0.602,1.756,1.862,3.18,3.528,3.986c0.971,0.48,2.004,0.718,3.043,0.718    c0.765,0,1.529-0.127,2.262-0.385c2.073-0.702,3.734-2.167,4.699-4.129c0.96-1.956,1.097-4.171,0.385-6.249    c-1.74-5.046-7.262-7.73-12.287-6.006c-1.266,0.438-2.368,1.06-3.322,1.798c0.76-3.775,2.315-7.262,4.772-10.009    C108.258,63.127,113.289,60.917,118.848,60.896z M151.685,71.955c-0.231-0.417-0.295-0.896-0.158-1.361    c0.127-0.458,0.422-0.838,0.834-1.071c1.328-0.754,3.037-0.274,3.78,1.05c0.659,1.181,0.659,2.558,0.122,3.691    c0.005-0.364-0.085-0.749-0.28-1.097c-0.39-0.707-1.128-1.103-1.893-1.103c-0.354,0-0.718,0.09-1.05,0.279    C152.581,72.614,151.954,72.44,151.685,71.955z M40.326,72.34c-1.046-0.585-2.36-0.211-2.937,0.822    c-0.195,0.349-0.28,0.733-0.274,1.097c-0.541-1.139-0.535-2.51,0.124-3.686c0.361-0.644,0.954-1.113,1.666-1.308    c0.251-0.069,0.504-0.105,0.752-0.105c0.469,0,0.941,0.116,1.36,0.353c0.411,0.232,0.709,0.612,0.838,1.071    c0.129,0.464,0.069,0.943-0.168,1.371C41.433,72.44,40.811,72.614,40.326,72.34z M40.489,143.109    c0.135,0.717,0.124,1.466,0.124,2.246c0.011,2.679,0.021,6.181,3.473,11.417c-2.215-0.237-4.96-0.986-7.578-2.938    c-0.648-0.484-1.526-0.563-2.252-0.2c-0.728,0.364-1.191,1.107-1.197,1.92c-0.019,2.336-0.675,4.098-1.369,5.959    c-0.701,1.877-1.463,3.923-1.345,6.396c-1.511-0.765-3.217-1.94-4.411-3.712c-1.521-2.231-1.97-5.068-1.334-8.406    c0.168-0.881-0.227-1.771-0.992-2.246c-0.348-0.211-0.741-0.327-1.131-0.327c-0.464,0-0.928,0.147-1.315,0.453    c-2.679,2.057-5.503,2.837-7.781,3.08c3.454-5.247,3.465-8.743,3.478-11.412c0-0.786-0.008-1.529,0.124-2.257    c1.392-7.615,6.036-7.161,10.091-7.035l1.659,0.043l1.658-0.043C34.462,135.922,39.1,135.479,40.489,143.109z M55.021,146.289    c-0.475,0.49-1.113,0.754-1.788,0.754c-0.654,0-1.268-0.247-1.735-0.706c-0.981-0.976-0.997-2.558-0.042-3.518    c0.475-0.485,1.113-0.749,1.788-0.749c0.654,0,1.268,0.248,1.732,0.712c0.477,0.464,0.741,1.086,0.746,1.756    C55.727,145.203,55.479,145.819,55.021,146.289z M73.438,138.179c2.708,3.617,6.281,3.949,7.341,3.949    c0.166,0,0.269-0.005,0.295-0.005c1.178-0.101,2.036-1.107,1.972-2.283c-0.071-1.182-1.221-2.004-2.262-2.03    c-0.369,0.074-3.188-0.011-4.899-3.955c-0.082-0.538-0.098-1.187,0.179-1.725c0.314-0.622,1.01-1.097,2.078-1.408    c0.417-0.11,0.788-0.179,1.123-0.179c1.355,0,2.766,1.018,5.585,6.022c1.086,1.914,2.423,3.496,4.303,5.035    c-2.447,0.839-5.787,1.735-8.872,1.735c-5.113,0-6.474-2.457-7.035-4.261C73.206,138.911,73.282,138.521,73.438,138.179z     M94.573,108.711c-2.721-1.909-6.291-3.713-10.879-5.042c2.233-0.822,4.351-1.993,6.263-3.533c1.854-1.477,3.343-3.274,4.611-5.21    L94.573,108.711L94.573,108.711z M138.412,142.777c0.464-0.459,1.075-0.707,1.729-0.707c0.675,0,1.308,0.264,1.787,0.749    c0.465,0.469,0.718,1.092,0.712,1.751c-0.005,0.664-0.273,1.286-0.759,1.767c-0.944,0.928-2.573,0.917-3.507-0.048    c-0.464-0.475-0.718-1.097-0.712-1.751C137.663,143.868,137.932,143.246,138.412,142.777z M113.1,143.341    c-3.08,0-6.418-0.896-8.876-1.734c1.898-1.535,3.238-3.122,4.309-5.036c2.985-5.284,4.277-6.519,6.697-5.843    c1.07,0.316,1.782,0.785,2.094,1.413c0.264,0.538,0.259,1.171,0.18,1.688c-1.683,3.966-4.515,4.05-4.895,3.992    c-1.102-0.026-2.198,0.807-2.294,1.993c-0.095,1.187,0.797,2.22,1.988,2.32c0.026,0,0.127,0.005,0.301,0.005    c1.06,0,4.63-0.337,7.33-3.949c0.147,0.337,0.227,0.722,0.206,0.844C119.575,140.879,118.209,143.341,113.1,143.341z     M164.642,136.106l1.661-0.037c4.029-0.132,8.701-0.586,10.094,7.04c0.137,0.717,0.126,1.466,0.126,2.246    c0.011,2.679,0.021,6.181,3.471,11.417c-2.278-0.242-5.1-1.028-7.769-3.085c-0.717-0.548-1.688-0.591-2.452-0.121    c-0.77,0.47-1.16,1.366-0.996,2.247c1.365,7.172-2.59,10.604-5.754,12.176c0.132-2.505-0.633-4.562-1.334-6.449    c-0.696-1.872-1.35-3.634-1.365-5.965c-0.006-0.812-0.465-1.555-1.197-1.919c-0.312-0.147-0.639-0.222-0.971-0.222    c-0.453,0-0.907,0.143-1.286,0.422c-2.621,1.951-5.369,2.7-7.578,2.942c3.448-5.252,3.459-8.743,3.47-11.422    c0-0.786-0.005-1.519,0.127-2.247c1.392-7.614,6.021-7.155,10.093-7.039L164.642,136.106z M95.908,56.287    c-3.489,0.253-8.235,1.43-9.973-6.391c-0.158-0.702-0.174-1.414-0.206-2.178c-0.108-2.578-0.25-5.943-3.709-10.847    c2.127,0.168,4.849,0.812,7.478,2.679c0.735,0.521,1.706,0.532,2.452,0.031c0.746-0.496,1.107-1.402,0.901-2.278    c-1.556-6.776,2.025-10.235,5.002-11.881c-0.016,2.395,0.797,4.335,1.54,6.123c0.738,1.777,1.439,3.459,1.534,5.711    c0.032,0.807,0.522,1.534,1.261,1.872c0.743,0.337,1.608,0.227,2.246-0.285c2.426-1.951,5.031-2.763,7.072-3.085    c-3.091,5.157-2.975,8.522-2.885,11.106c0.026,0.77,0.068,1.471-0.037,2.183c-1.018,7.077-4.931,7.098-9.45,7.125L95.908,56.287z     M103.412,100.142c1.909,1.539,4.034,2.71,6.275,3.538c-4.541,1.308-8.079,3.074-10.79,4.962V95.073    C100.153,96.951,101.608,98.696,103.412,100.142z" fill="#ffffff" data-original="#000000" style="" class=""/>
	</g>
</g>
<g xmlns="http://www.w3.org/2000/svg">
</g>
<g xmlns="http://www.w3.org/2000/svg">
</g>
<g xmlns="http://www.w3.org/2000/svg">
</g>
<g xmlns="http://www.w3.org/2000/svg">
</g>
<g xmlns="http://www.w3.org/2000/svg">
</g>
<g xmlns="http://www.w3.org/2000/svg">
</g>
<g xmlns="http://www.w3.org/2000/svg">
</g>
<g xmlns="http://www.w3.org/2000/svg">
</g>
<g xmlns="http://www.w3.org/2000/svg">
</g>
<g xmlns="http://www.w3.org/2000/svg">
</g>
<g xmlns="http://www.w3.org/2000/svg">
</g>
<g xmlns="http://www.w3.org/2000/svg">
</g>
<g xmlns="http://www.w3.org/2000/svg">
</g>
<g xmlns="http://www.w3.org/2000/svg">
</g>
<g xmlns="http://www.w3.org/2000/svg">
</g>
</g></svg>
